<svg xmlns="http://www.w3.org/2000/svg" xmlns:xlink="http://www.w3.org/1999/xlink" width="540" height="211.97"><rect width="540" height="211.97" rx="5" ry="5" class="a"/><svg y="0%" x="0%"><circle cx="20" cy="20" r="6" fill="#ff5f58"/><circle cx="40" cy="20" r="6" fill="#ffbd2e"/><circle cx="60" cy="20" r="6" fill="#18c132"/></svg><svg height="151.97" viewBox="0 0 50 15.197" width="500" x="15" xmlns="http://www.w3.org/2000/svg" xmlns:xlink="http://www.w3.org/1999/xlink" y="50"><style>@keyframes i{0%{transform:translateX(-50px)}4.9%{transform:translateX(-100px)}13.4%{transform:translateX(-150px)}22.4%{transform:translateX(-200px)}31.5%{transform:translateX(-250px)}40.6%{transform:translateX(-300px)}49.7%{transform:translateX(-350px)}to{transform:translateX(-400px)}}.a{fill:#282d35}.f,.g{fill:#b9c0cb;white-space:pre}.g{fill:#71bef2}</style><g font-family="Monaco,Consolas,Menlo,'Bitstream Vera Sans Mono','Powerline Symbols',monospace" font-size="1.67"><defs><symbol id="1"><text y="1.67" class="f">$</text><text x="2.004" y="1.67" class="f">DEBUG=app</text><text x="12.024" y="1.67" class="f">deno</text><text x="17.034" y="1.67" class="f">run</text><text x="21.042" y="1.67" class="f">--allow-env</text><text x="33.066" y="1.67" class="f">script.ts</text></symbol><symbol id="2"><text y="1.67" class="g">app</text><text x="4.008" y="1.67" class="f">Starting</text><text x="13.026" y="1.67" class="f">My</text><text x="16.032" y="1.67" class="f">Awesome</text><text x="24.048" y="1.67" class="f">App...</text><text x="31.062" y="1.67" class="g">+0ms</text></symbol><symbol id="3"><text y="1.67" class="g">app</text><text x="4.008" y="1.67" class="f">GET</text><text x="8.016" y="1.67" class="f">/hello</text><text x="15.03" y="1.67" class="g">+583ms</text></symbol><symbol id="4"><text y="1.67" class="g">app</text><text x="4.008" y="1.67" class="f">GET</text><text x="8.016" y="1.67" class="f">/world</text><text x="15.03" y="1.67" class="g">+511ms</text></symbol><symbol id="5"><text y="1.67" class="g">app</text><text x="4.008" y="1.67" class="f">GET</text><text x="8.016" y="1.67" class="f">/debug</text><text x="15.03" y="1.67" class="g">+514ms</text></symbol><symbol id="6"><text y="1.67" class="g">app</text><text x="4.008" y="1.67" class="f">GET</text><text x="8.016" y="1.67" class="f">/is</text><text x="12.024" y="1.67" class="g">+513ms</text></symbol><symbol id="7"><text y="1.67" class="g">app</text><text x="4.008" y="1.67" class="f">GET</text><text x="8.016" y="1.67" class="f">/awesome</text><text x="17.034" y="1.67" class="g">+511ms</text></symbol><symbol id="a"><path fill="transparent" d="M0 0h50v8H0z"/></symbol></defs><path class="a" d="M0 0h50v15.197H0z"/><g style="animation-duration:5.644236s;animation-iteration-count:infinite;animation-name:i;animation-timing-function:steps(1,end)"><svg width="450"><svg><use xlink:href="#a"/></svg><svg x="50"><use xlink:href="#a"/><use xlink:href="#1"/></svg><svg x="100"><use xlink:href="#a"/><use xlink:href="#1"/><use xlink:href="#2" y="2.171"/></svg><svg x="150"><use xlink:href="#a"/><use xlink:href="#1"/><use xlink:href="#2" y="2.171"/><use xlink:href="#3" y="4.342"/></svg><svg x="200"><use xlink:href="#a"/><use xlink:href="#1"/><use xlink:href="#2" y="2.171"/><use xlink:href="#3" y="4.342"/><use xlink:href="#4" y="6.513"/></svg><svg x="250"><use xlink:href="#a"/><use xlink:href="#1"/><use xlink:href="#2" y="2.171"/><use xlink:href="#3" y="4.342"/><use xlink:href="#4" y="6.513"/><use xlink:href="#5" y="8.684"/></svg><svg x="300"><use xlink:href="#a"/><use xlink:href="#1"/><use xlink:href="#2" y="2.171"/><use xlink:href="#3" y="4.342"/><use xlink:href="#4" y="6.513"/><use xlink:href="#5" y="8.684"/><use xlink:href="#6" y="10.855"/></svg><svg x="350"><use xlink:href="#a"/><use xlink:href="#1"/><use xlink:href="#2" y="2.171"/><use xlink:href="#3" y="4.342"/><use xlink:href="#4" y="6.513"/><use xlink:href="#5" y="8.684"/><use xlink:href="#6" y="10.855"/><use xlink:href="#7" y="13.026"/></svg><svg x="400"><use xlink:href="#a"/><use xlink:href="#1"/><use xlink:href="#2" y="2.171"/><use xlink:href="#3" y="4.342"/><use xlink:href="#4" y="6.513"/><use xlink:href="#5" y="8.684"/><use xlink:href="#6" y="10.855"/><use xlink:href="#7" y="13.026"/><text y="16.867" class="f">^C</text></svg></svg></g></g></svg></svg>